<?xml version="1.0" encoding="utf-8"?>
<!-- Generator: Adobe Illustrator 21.1.0, SVG Export Plug-In . SVG Version: 6.00 Build 0)  -->
<svg version="1.1" id="Capa_1" xmlns="http://www.w3.org/2000/svg" xmlns:xlink="http://www.w3.org/1999/xlink" x="0px" y="0px"
	 viewBox="0 0 246 114" style="enable-background:new 0 0 246 114;" xml:space="preserve">
<style type="text/css">
	.st0{fill:#FFFFFF;}
</style>
<g>
	<g>
		<g>
			<path class="st0" d="M8.7,103.6h1.1c0,0.7,0.2,1.3,0.6,1.7s0.9,0.6,1.5,0.6c0.7,0,1.2-0.2,1.6-0.6c0.4-0.4,0.6-1,0.6-1.8
				c0-1.1-0.8-1.9-2.5-2.4c-0.1,0-0.2-0.1-0.3-0.1c-0.9-0.3-1.5-0.7-1.9-1.1c-0.4-0.5-0.6-1.1-0.6-1.8c0-0.9,0.3-1.7,0.9-2.3
				c0.6-0.6,1.3-0.9,2.3-0.9c0.9,0,1.6,0.3,2.1,0.8c0.5,0.5,0.8,1.3,0.9,2.3h-1.1c-0.1-0.6-0.3-1.1-0.6-1.5S12.8,96,12.2,96
				c-0.6,0-1.1,0.2-1.4,0.6c-0.4,0.4-0.6,0.9-0.6,1.5c0,0.3,0.1,0.6,0.2,0.8c0.1,0.2,0.3,0.4,0.5,0.6c0.2,0.2,0.7,0.4,1.4,0.6
				c0.4,0.1,0.7,0.2,0.9,0.3c0.8,0.3,1.3,0.7,1.7,1.1c0.3,0.5,0.5,1.1,0.5,1.8c0,1.1-0.3,2.1-0.9,2.8c-0.6,0.7-1.5,1.1-2.5,1.1
				c-1,0-1.7-0.3-2.3-1C9.1,105.5,8.8,104.6,8.7,103.6z"/>
			<path class="st0" d="M16.4,102.5c0-1.3,0.4-2.4,1.3-3.4c0.9-0.9,2-1.4,3.2-1.4c1.3,0,2.4,0.5,3.3,1.4c0.9,0.9,1.4,2,1.4,3.3
				c0,1.3-0.4,2.5-1.3,3.4c-0.9,0.9-2,1.4-3.3,1.4c-1.3,0-2.4-0.5-3.3-1.4C16.9,104.9,16.4,103.8,16.4,102.5z M17.7,102.5
				c0,1,0.3,1.9,1,2.6c0.7,0.7,1.5,1,2.4,1c1,0,1.8-0.3,2.4-1c0.6-0.7,1-1.6,1-2.6c0-1.1-0.3-1.9-1-2.6c-0.7-0.7-1.5-1-2.5-1
				c-0.9,0-1.7,0.3-2.3,1C18,100.6,17.7,101.4,17.7,102.5z"/>
			<path class="st0" d="M27,106.9V95.1h1.1v11.8H27z"/>
			<path class="st0" d="M30,98h1.1v4.7c0,1.2,0.2,2.1,0.6,2.6c0.4,0.5,1,0.8,2,0.8c0.5,0,1-0.1,1.4-0.3c0.4-0.2,0.7-0.5,0.9-0.9
				c0.1-0.2,0.2-0.5,0.3-0.8c0.1-0.3,0.1-0.9,0.1-1.7V98h1.1v8.9h-1.1v-1c-0.3,0.4-0.7,0.7-1.2,0.9c-0.4,0.2-0.9,0.3-1.6,0.3
				c-1.3,0-2.2-0.3-2.8-1c-0.6-0.7-0.9-1.9-0.9-3.5V98z"/>
			<path class="st0" d="M46.5,100.7c-0.4-0.6-0.8-1.1-1.3-1.4c-0.5-0.3-1.1-0.5-1.8-0.5c-0.9,0-1.7,0.3-2.3,1c-0.6,0.7-1,1.6-1,2.6
				c0,1,0.3,1.9,1,2.6c0.6,0.7,1.4,1,2.4,1c0.7,0,1.3-0.2,1.8-0.5c0.5-0.3,0.9-0.8,1.2-1.4h1.3c-0.3,1-0.9,1.7-1.6,2.3
				c-0.7,0.5-1.6,0.8-2.6,0.8c-1.3,0-2.4-0.5-3.3-1.4c-0.9-0.9-1.3-2-1.3-3.3c0-1.3,0.5-2.4,1.4-3.4c0.9-0.9,2-1.4,3.3-1.4
				c1,0,1.8,0.3,2.6,0.8c0.7,0.5,1.3,1.3,1.7,2.2H46.5z"/>
			<path class="st0" d="M50.6,97h-1.1v-1.8h1.1V97z M49.4,106.9V98h1.1v8.9H49.4z"/>
			<path class="st0" d="M51.9,102.5c0-1.3,0.4-2.4,1.3-3.4c0.9-0.9,2-1.4,3.2-1.4c1.3,0,2.4,0.5,3.3,1.4c0.9,0.9,1.4,2,1.4,3.3
				c0,1.3-0.4,2.5-1.3,3.4c-0.9,0.9-2,1.4-3.3,1.4c-1.3,0-2.4-0.5-3.3-1.4C52.4,104.9,51.9,103.8,51.9,102.5z M53.1,102.5
				c0,1,0.3,1.9,1,2.6c0.7,0.7,1.5,1,2.4,1c1,0,1.8-0.3,2.4-1c0.6-0.7,1-1.6,1-2.6c0-1.1-0.3-1.9-1-2.6c-0.7-0.7-1.5-1-2.5-1
				c-0.9,0-1.7,0.3-2.3,1C53.5,100.6,53.1,101.4,53.1,102.5z"/>
			<path class="st0" d="M62.5,98h1.1v1c0.4-0.4,0.8-0.7,1.2-0.9c0.5-0.2,1-0.3,1.6-0.3c0.7,0,1.2,0.1,1.8,0.4c0.5,0.2,0.9,0.6,1.2,1
				c0.2,0.3,0.4,0.7,0.4,1.1c0.1,0.4,0.1,1.1,0.1,1.9v4.7h-1.1v-5c0-1.1-0.2-1.8-0.6-2.3c-0.4-0.5-1-0.7-1.9-0.7
				c-0.5,0-1,0.1-1.4,0.3c-0.4,0.2-0.7,0.5-0.9,0.9c-0.1,0.2-0.2,0.5-0.3,0.8c-0.1,0.3-0.1,0.9-0.1,1.6v4.3h-1.1V98z"/>
			<path class="st0" d="M80.6,102.8h-8.1c0.1,1,0.4,1.8,1.1,2.4c0.6,0.6,1.4,0.9,2.4,0.9c0.7,0,1.3-0.2,1.8-0.5
				c0.5-0.3,1-0.8,1.2-1.5h1.3c-0.4,1-1,1.7-1.7,2.3c-0.7,0.5-1.6,0.8-2.6,0.8c-1.3,0-2.4-0.5-3.3-1.4c-0.9-0.9-1.3-2-1.3-3.3
				c0-1.4,0.4-2.5,1.3-3.4c0.9-0.9,2-1.3,3.4-1.3c1.3,0,2.4,0.5,3.3,1.4C80.1,100.1,80.6,101.3,80.6,102.8L80.6,102.8z M79.3,101.8
				c-0.2-1-0.6-1.7-1.2-2.2c-0.6-0.5-1.3-0.8-2.3-0.8c-0.9,0-1.6,0.3-2.2,0.8c-0.6,0.5-1,1.3-1.1,2.2H79.3z"/>
			<path class="st0" d="M81.3,104.1h1.2v0c0,0.6,0.2,1,0.5,1.4c0.3,0.4,0.7,0.5,1.2,0.5c0.5,0,0.8-0.1,1.1-0.4
				c0.3-0.3,0.4-0.6,0.4-1.1c0-0.4-0.1-0.8-0.4-1c-0.2-0.3-0.7-0.5-1.3-0.7c-1-0.4-1.6-0.7-1.9-1.1c-0.3-0.4-0.5-0.9-0.5-1.5
				c0-0.7,0.3-1.3,0.8-1.8c0.5-0.5,1.1-0.7,1.8-0.7c0.8,0,1.4,0.2,1.8,0.6c0.4,0.4,0.7,1,0.7,1.8h-1.2c0-0.4-0.2-0.8-0.4-1
				c-0.2-0.2-0.6-0.3-1-0.3c-0.4,0-0.7,0.1-0.9,0.4c-0.2,0.3-0.4,0.6-0.4,0.9c0,0.3,0.1,0.5,0.2,0.7c0.1,0.2,0.3,0.3,0.5,0.5
				c0.2,0.1,0.5,0.3,0.9,0.4c0.4,0.1,0.7,0.2,0.8,0.3c0.6,0.2,1,0.6,1.2,1c0.3,0.4,0.4,0.9,0.4,1.5c0,0.8-0.3,1.4-0.8,1.9
				c-0.5,0.5-1.2,0.8-2,0.8c-0.8,0-1.5-0.3-2-0.8C81.6,105.8,81.3,105.1,81.3,104.1z"/>
			<path class="st0" d="M97.4,101.3h7.4c-0.1,1.7-0.7,3.1-1.9,4.2c-1.1,1.1-2.5,1.7-4.2,1.7c-1.7,0-3.1-0.6-4.3-1.8
				c-1.2-1.2-1.7-2.7-1.7-4.4c0-0.8,0.2-1.6,0.5-2.4c0.3-0.7,0.8-1.4,1.4-2c0.6-0.6,1.2-1,1.9-1.3c0.7-0.3,1.5-0.4,2.4-0.4
				c1.1,0,2.2,0.3,3.1,0.8c0.9,0.6,1.6,1.3,2.2,2.4h-1.4c-0.6-0.7-1.2-1.2-1.8-1.6c-0.6-0.3-1.3-0.5-2.1-0.5c-1.4,0-2.5,0.5-3.5,1.5
				c-0.9,1-1.4,2.1-1.4,3.5c0,1.5,0.5,2.7,1.4,3.6c0.9,1,2.1,1.5,3.5,1.5c1.1,0,2.1-0.3,2.9-1c0.9-0.7,1.4-1.6,1.7-2.7h-6V101.3z"/>
			<path class="st0" d="M107.3,106.9h-1.2V98h1.1v1c0.3-0.4,0.6-0.7,0.9-0.9c0.3-0.2,0.7-0.3,1.2-0.3l0,1.2
				c-0.7,0.1-1.2,0.3-1.5,0.6c-0.3,0.4-0.5,1-0.5,1.8V106.9z"/>
			<path class="st0" d="M117.9,105.5c-0.4,0.5-0.8,0.9-1.5,1.2c-0.6,0.3-1.3,0.4-2,0.4c-1.3,0-2.4-0.4-3.3-1.3
				c-0.9-0.9-1.3-2-1.3-3.3c0-1.3,0.4-2.5,1.3-3.4c0.9-0.9,2-1.3,3.3-1.3c0.7,0,1.3,0.1,1.9,0.4c0.6,0.3,1.1,0.7,1.4,1.2V98h1.1v8.9
				h-1.1V105.5z M117.9,102.4c0-0.9-0.3-1.8-1-2.5c-0.7-0.7-1.5-1.1-2.3-1.1c-1,0-1.8,0.4-2.5,1.1c-0.7,0.7-1,1.6-1,2.6
				c0,1,0.3,1.8,1,2.5c0.7,0.7,1.5,1,2.4,1c0.9,0,1.7-0.4,2.4-1.1C117.5,104.3,117.9,103.4,117.9,102.4z M114.3,96.8h-0.7l1.7-2.8
				h1.2L114.3,96.8z"/>
			<path class="st0" d="M122.4,106.9h-1.1V99h-1.2v-1h1.1v-0.2c0-0.9,0.2-1.6,0.7-2.1c0.5-0.5,1.2-0.7,2.2-0.7h0.1v1
				c-0.7,0-1.2,0.1-1.5,0.4c-0.3,0.3-0.4,0.7-0.4,1.3V98h1.9v1h-1.9V106.9z"/>
			<path class="st0" d="M126.5,97h-1.1v-1.8h1.1V97z M125.4,106.9V98h1.1v8.9H125.4z"/>
			<path class="st0" d="M135.5,100.7c-0.4-0.6-0.8-1.1-1.3-1.4c-0.5-0.3-1.1-0.5-1.8-0.5c-0.9,0-1.7,0.3-2.3,1c-0.6,0.7-1,1.6-1,2.6
				c0,1,0.3,1.9,1,2.6c0.6,0.7,1.4,1,2.4,1c0.7,0,1.3-0.2,1.8-0.5c0.5-0.3,0.9-0.8,1.2-1.4h1.3c-0.3,1-0.9,1.7-1.6,2.3
				c-0.7,0.5-1.6,0.8-2.6,0.8c-1.3,0-2.4-0.5-3.3-1.4c-0.9-0.9-1.3-2-1.3-3.3c0-1.3,0.5-2.4,1.4-3.4c0.9-0.9,2-1.4,3.3-1.4
				c1,0,1.8,0.3,2.6,0.8c0.7,0.5,1.3,1.3,1.7,2.2H135.5z"/>
			<path class="st0" d="M146,105.5c-0.4,0.5-0.8,0.9-1.5,1.2c-0.6,0.3-1.3,0.4-2,0.4c-1.3,0-2.4-0.4-3.3-1.3c-0.9-0.9-1.3-2-1.3-3.3
				c0-1.3,0.4-2.5,1.3-3.4c0.9-0.9,2-1.3,3.3-1.3c0.7,0,1.3,0.1,1.9,0.4c0.6,0.3,1.1,0.7,1.4,1.2V98h1.1v8.9H146V105.5z M146,102.4
				c0-0.9-0.3-1.8-1-2.5c-0.7-0.7-1.5-1.1-2.3-1.1c-1,0-1.8,0.4-2.5,1.1c-0.7,0.7-1,1.6-1,2.6c0,1,0.3,1.8,1,2.5
				c0.7,0.7,1.5,1,2.4,1c0.9,0,1.7-0.4,2.4-1.1C145.7,104.3,146,103.4,146,102.4z"/>
			<path class="st0" d="M148.4,104.1h1.2v0c0,0.6,0.2,1,0.5,1.4c0.3,0.4,0.7,0.5,1.2,0.5c0.5,0,0.8-0.1,1.1-0.4
				c0.3-0.3,0.4-0.6,0.4-1.1c0-0.4-0.1-0.8-0.4-1c-0.2-0.3-0.7-0.5-1.3-0.7c-1-0.4-1.6-0.7-1.9-1.1c-0.3-0.4-0.5-0.9-0.5-1.5
				c0-0.7,0.3-1.3,0.8-1.8c0.5-0.5,1.1-0.7,1.8-0.7c0.8,0,1.4,0.2,1.8,0.6c0.4,0.4,0.7,1,0.7,1.8h-1.2c0-0.4-0.2-0.8-0.4-1
				c-0.2-0.2-0.6-0.3-1-0.3c-0.4,0-0.7,0.1-0.9,0.4c-0.2,0.3-0.4,0.6-0.4,0.9c0,0.3,0.1,0.5,0.2,0.7c0.1,0.2,0.3,0.3,0.5,0.5
				c0.2,0.1,0.5,0.3,0.9,0.4c0.4,0.1,0.7,0.2,0.8,0.3c0.6,0.2,1,0.6,1.2,1c0.3,0.4,0.4,0.9,0.4,1.5c0,0.8-0.3,1.4-0.8,1.9
				c-0.5,0.5-1.2,0.8-2,0.8c-0.8,0-1.5-0.3-2-0.8C148.7,105.8,148.4,105.1,148.4,104.1z"/>
		</g>
	</g>
	<g>
		<g>
			
				<ellipse transform="matrix(0.1305 -0.9914 0.9914 0.1305 102.8689 233.0742)" class="st0" cx="184.3" cy="57.9" rx="20.5" ry="20.5"/>
			
				<ellipse transform="matrix(0.1304 -0.9915 0.9915 0.1304 112.8321 241.0197)" class="st0" cx="193.8" cy="56.2" rx="9.2" ry="9.2"/>
			
				<ellipse transform="matrix(0.1306 -0.9914 0.9914 0.1306 91.7001 231.2473)" class="st0" cx="177.7" cy="63.3" rx="3.6" ry="3.6"/>
		</g>
		<path class="st0" d="M231.7,44.1L242,30.7c-7-3.5-14.8-6-23.2-7.1c-21.5-2.8-41.8,4-55.6,16.7c11.4-6.9,25.1-10.1,39.5-8.2
			C213.7,33.6,223.6,37.9,231.7,44.1z"/>
		<path class="st0" d="M208.3,20.5L210,7.3c-1.2,0.2-2.5,0.4-3.7,0.7c-28.4,5.6-50.7,21.3-58.6,38.9C158.5,31.6,181.5,21,208.3,20.5
			z"/>
		<path class="st0" d="M167.9,21.9l-1.8-6.3c-20.5,13.8-32.5,33.4-30.6,50.6C137.5,50.1,149.5,33.5,167.9,21.9z"/>
	</g>
	<g>
		<path class="st0" d="M63.4,75.7c0,6.1-1.7,10.4-5,13c-2.8,2.2-7.2,3.3-13.1,3.3H5.8v-9.8h36.8c2.6,0,4.6-0.5,5.9-1.4
			c1.5-1.1,2.2-2.7,2.2-4.9c0-2.2-0.8-3.9-2.4-5.1c-1.4-1-3.1-1.5-5-1.5H29.8c-5.6,0-9.8-1.4-12.8-4.3c-3-2.9-4.5-6.7-4.5-11.6
			c0-5.1,1.9-9.1,5.6-12c3.4-2.6,7.6-3.9,12.8-3.9h93.1V47H31.8c-4.4,0-6.5,2-6.5,6c0,2.4,0.8,4.2,2.4,5.2c1.2,0.8,2.9,1.1,5,1.1
			h12.9C57.4,59.4,63.4,64.8,63.4,75.7z"/>
		<path class="st0" d="M78.7,91.9H67.4V50.3h11.3V91.9z M115.1,50.3L92.4,70.8L114,91.9H98.9L79.3,70.8l20.8-20.4H115.1z"/>
		<path class="st0" d="M155,91.9h-17.5c-6.6,0-11.6-1.9-14.9-5.8c-3.1-3.6-4.7-8.5-4.7-14.6V37.3h11.3v31.9c0,4.6,0.7,7.8,2.1,9.7
			c1.5,2.2,4.1,3.2,7.9,3.2H155V91.9z"/>
	</g>
</g>
</svg>
