<?xml version="1.0" encoding="utf-8"?>
<!-- Generator: Adobe Illustrator 21.1.0, SVG Export Plug-In . SVG Version: 6.00 Build 0)  -->
<svg version="1.1" id="Capa_1" xmlns="http://www.w3.org/2000/svg" xmlns:xlink="http://www.w3.org/1999/xlink" x="0px" y="0px"
	 viewBox="0 0 102.5 45" style="enable-background:new 0 0 102.5 45;" xml:space="preserve">
<style type="text/css">
	.st0{fill:#83B23E;}
	.st1{fill:#F2F1F1;}
	.st2{fill:#C4007A;}
	.st3{fill:#CF619C;}
	.st4{fill:#DE9DC2;}
	.st5{fill:#593486;}
</style>
<g>
	<g>
		<g>
			<path d="M2.4,42.1h0.5c0,0.3,0.1,0.6,0.3,0.7s0.4,0.3,0.7,0.3c0.3,0,0.5-0.1,0.7-0.3c0.2-0.2,0.3-0.4,0.3-0.7
				c0-0.5-0.4-0.8-1.1-1c-0.1,0-0.1,0-0.1,0c-0.4-0.1-0.6-0.3-0.8-0.5c-0.2-0.2-0.2-0.4-0.2-0.8c0-0.4,0.1-0.7,0.4-1
				c0.2-0.3,0.6-0.4,1-0.4c0.4,0,0.7,0.1,0.9,0.3c0.2,0.2,0.3,0.6,0.4,1H4.7c0-0.3-0.1-0.5-0.2-0.6c-0.1-0.1-0.3-0.2-0.6-0.2
				c-0.2,0-0.5,0.1-0.6,0.2C3.1,39.3,3,39.5,3,39.7c0,0.1,0,0.2,0.1,0.3c0,0.1,0.1,0.2,0.2,0.3c0.1,0.1,0.3,0.2,0.6,0.3
				c0.2,0.1,0.3,0.1,0.4,0.1C4.6,40.9,4.9,41,5,41.2c0.1,0.2,0.2,0.5,0.2,0.8c0,0.5-0.1,0.9-0.4,1.2c-0.3,0.3-0.6,0.4-1.1,0.4
				c-0.4,0-0.7-0.1-1-0.4C2.5,42.9,2.4,42.5,2.4,42.1z"/>
			<path d="M5.7,41.6c0-0.6,0.2-1,0.6-1.4c0.4-0.4,0.8-0.6,1.4-0.6c0.5,0,1,0.2,1.4,0.6c0.4,0.4,0.6,0.8,0.6,1.4
				c0,0.6-0.2,1-0.6,1.4c-0.4,0.4-0.8,0.6-1.4,0.6c-0.5,0-1-0.2-1.4-0.6C5.8,42.6,5.7,42.2,5.7,41.6z M6.2,41.6
				c0,0.4,0.1,0.8,0.4,1.1c0.3,0.3,0.6,0.4,1,0.4c0.4,0,0.7-0.1,1-0.4C8.9,42.4,9,42.1,9,41.6c0-0.4-0.1-0.8-0.4-1.1
				c-0.3-0.3-0.6-0.4-1.1-0.4c-0.4,0-0.7,0.1-1,0.4C6.3,40.8,6.2,41.2,6.2,41.6z"/>
			<path d="M10.1,43.5v-5h0.5v5H10.1z"/>
			<path d="M11.4,39.7h0.5v2c0,0.5,0.1,0.9,0.3,1.1c0.2,0.2,0.4,0.3,0.8,0.3c0.2,0,0.4,0,0.6-0.1c0.2-0.1,0.3-0.2,0.4-0.4
				c0.1-0.1,0.1-0.2,0.1-0.3c0-0.1,0-0.4,0-0.7v-1.9h0.5v3.8h-0.5v-0.4c-0.1,0.2-0.3,0.3-0.5,0.4c-0.2,0.1-0.4,0.1-0.7,0.1
				c-0.5,0-0.9-0.1-1.2-0.4c-0.2-0.3-0.4-0.8-0.4-1.5V39.7z"/>
			<path d="M18.4,40.9c-0.1-0.3-0.3-0.5-0.5-0.6c-0.2-0.1-0.5-0.2-0.8-0.2c-0.4,0-0.7,0.1-1,0.4c-0.3,0.3-0.4,0.7-0.4,1.1
				s0.1,0.8,0.4,1.1c0.3,0.3,0.6,0.4,1,0.4c0.3,0,0.6-0.1,0.8-0.2c0.2-0.1,0.4-0.3,0.5-0.6h0.5c-0.1,0.4-0.4,0.7-0.7,1
				c-0.3,0.2-0.7,0.3-1.1,0.3c-0.5,0-1-0.2-1.4-0.6c-0.4-0.4-0.6-0.9-0.6-1.4c0-0.6,0.2-1,0.6-1.4c0.4-0.4,0.8-0.6,1.4-0.6
				c0.4,0,0.8,0.1,1.1,0.3c0.3,0.2,0.5,0.5,0.7,0.9H18.4z"/>
			<path d="M20.1,39.3h-0.5v-0.8h0.5V39.3z M19.6,43.5v-3.8h0.5v3.8H19.6z"/>
			<path d="M20.7,41.6c0-0.6,0.2-1,0.6-1.4c0.4-0.4,0.8-0.6,1.4-0.6c0.5,0,1,0.2,1.4,0.6c0.4,0.4,0.6,0.8,0.6,1.4
				c0,0.6-0.2,1-0.6,1.4c-0.4,0.4-0.8,0.6-1.4,0.6c-0.5,0-1-0.2-1.4-0.6C20.9,42.6,20.7,42.2,20.7,41.6z M21.2,41.6
				c0,0.4,0.1,0.8,0.4,1.1c0.3,0.3,0.6,0.4,1,0.4c0.4,0,0.7-0.1,1-0.4c0.3-0.3,0.4-0.7,0.4-1.1c0-0.4-0.1-0.8-0.4-1.1
				c-0.3-0.3-0.6-0.4-1.1-0.4c-0.4,0-0.7,0.1-1,0.4C21.3,40.8,21.2,41.2,21.2,41.6z"/>
			<path d="M25.1,39.7h0.5v0.4c0.1-0.2,0.3-0.3,0.5-0.4c0.2-0.1,0.4-0.1,0.7-0.1c0.3,0,0.5,0.1,0.7,0.2c0.2,0.1,0.4,0.3,0.5,0.4
				c0.1,0.1,0.1,0.3,0.2,0.5c0,0.2,0.1,0.5,0.1,0.8v2h-0.5v-2.1c0-0.4-0.1-0.8-0.3-1c-0.2-0.2-0.4-0.3-0.8-0.3c-0.2,0-0.4,0-0.6,0.1
				c-0.2,0.1-0.3,0.2-0.4,0.4c-0.1,0.1-0.1,0.2-0.1,0.4c0,0.1,0,0.4,0,0.7v1.8h-0.5V39.7z"/>
			<path d="M32.8,41.8h-3.4c0,0.4,0.2,0.7,0.4,1c0.3,0.3,0.6,0.4,1,0.4c0.3,0,0.5-0.1,0.8-0.2c0.2-0.1,0.4-0.4,0.5-0.6h0.6
				c-0.2,0.4-0.4,0.7-0.7,1c-0.3,0.2-0.7,0.3-1.1,0.3c-0.6,0-1-0.2-1.4-0.6c-0.4-0.4-0.6-0.9-0.6-1.4c0-0.6,0.2-1.1,0.6-1.4
				c0.4-0.4,0.8-0.6,1.4-0.6c0.6,0,1,0.2,1.4,0.6C32.6,40.6,32.8,41.1,32.8,41.8L32.8,41.8z M32.3,41.4c-0.1-0.4-0.3-0.7-0.5-1
				c-0.2-0.2-0.6-0.3-1-0.3c-0.4,0-0.7,0.1-0.9,0.3c-0.3,0.2-0.4,0.5-0.5,0.9H32.3z"/>
			<path d="M33.1,42.3h0.5v0c0,0.2,0.1,0.4,0.2,0.6c0.1,0.2,0.3,0.2,0.5,0.2c0.2,0,0.3-0.1,0.5-0.2c0.1-0.1,0.2-0.3,0.2-0.5
				c0-0.2,0-0.3-0.1-0.4c-0.1-0.1-0.3-0.2-0.5-0.3c-0.4-0.1-0.7-0.3-0.8-0.5c-0.1-0.2-0.2-0.4-0.2-0.6c0-0.3,0.1-0.5,0.3-0.8
				c0.2-0.2,0.5-0.3,0.8-0.3c0.3,0,0.6,0.1,0.8,0.3c0.2,0.2,0.3,0.4,0.3,0.8h-0.5c0-0.2-0.1-0.3-0.2-0.4c-0.1-0.1-0.2-0.1-0.4-0.1
				c-0.2,0-0.3,0.1-0.4,0.2c-0.1,0.1-0.2,0.2-0.2,0.4c0,0.1,0,0.2,0.1,0.3c0,0.1,0.1,0.1,0.2,0.2c0.1,0.1,0.2,0.1,0.4,0.2
				c0.2,0.1,0.3,0.1,0.4,0.1c0.2,0.1,0.4,0.2,0.5,0.4c0.1,0.2,0.2,0.4,0.2,0.6c0,0.3-0.1,0.6-0.3,0.8c-0.2,0.2-0.5,0.3-0.9,0.3
				c-0.4,0-0.6-0.1-0.9-0.3C33.2,43,33.1,42.7,33.1,42.3z"/>
			<path d="M39.9,41.1H43c0,0.7-0.3,1.3-0.8,1.8c-0.5,0.5-1.1,0.7-1.8,0.7c-0.7,0-1.3-0.3-1.8-0.8c-0.5-0.5-0.7-1.1-0.7-1.9
				c0-0.4,0.1-0.7,0.2-1c0.1-0.3,0.3-0.6,0.6-0.8c0.2-0.2,0.5-0.4,0.8-0.5c0.3-0.1,0.6-0.2,1-0.2c0.5,0,0.9,0.1,1.3,0.4
				c0.4,0.2,0.7,0.6,0.9,1h-0.6c-0.2-0.3-0.5-0.5-0.8-0.7c-0.3-0.1-0.6-0.2-0.9-0.2c-0.6,0-1.1,0.2-1.5,0.6
				c-0.4,0.4-0.6,0.9-0.6,1.5c0,0.6,0.2,1.1,0.6,1.5c0.4,0.4,0.9,0.6,1.5,0.6c0.5,0,0.9-0.1,1.2-0.4c0.4-0.3,0.6-0.7,0.7-1.1h-2.5
				V41.1z"/>
			<path d="M44.1,43.5h-0.5v-3.8h0.5v0.4c0.1-0.2,0.2-0.3,0.4-0.4c0.1-0.1,0.3-0.1,0.5-0.1l0,0.5c-0.3,0-0.5,0.1-0.7,0.3
				c-0.1,0.2-0.2,0.4-0.2,0.8V43.5z"/>
			<path d="M48.6,42.9c-0.2,0.2-0.4,0.4-0.6,0.5c-0.3,0.1-0.5,0.2-0.8,0.2c-0.6,0-1-0.2-1.4-0.6c-0.4-0.4-0.6-0.8-0.6-1.4
				c0-0.6,0.2-1,0.6-1.4c0.4-0.4,0.8-0.6,1.4-0.6c0.3,0,0.6,0.1,0.8,0.2c0.2,0.1,0.4,0.3,0.6,0.5v-0.6h0.5v3.8h-0.5V42.9z
				 M48.6,41.6c0-0.4-0.1-0.8-0.4-1.1c-0.3-0.3-0.6-0.4-1-0.4c-0.4,0-0.8,0.1-1,0.4c-0.3,0.3-0.4,0.7-0.4,1.1c0,0.4,0.1,0.8,0.4,1.1
				c0.3,0.3,0.6,0.4,1,0.4c0.4,0,0.7-0.2,1-0.5C48.4,42.4,48.6,42,48.6,41.6z M47.1,39.2h-0.3l0.7-1.2H48L47.1,39.2z"/>
			<path d="M50.5,43.5H50v-3.4h-0.5v-0.4H50v-0.1c0-0.4,0.1-0.7,0.3-0.9c0.2-0.2,0.5-0.3,0.9-0.3h0v0.4c-0.3,0-0.5,0.1-0.6,0.2
				c-0.1,0.1-0.2,0.3-0.2,0.6v0.1h0.8v0.4h-0.8V43.5z"/>
			<path d="M52.2,39.3h-0.5v-0.8h0.5V39.3z M51.8,43.5v-3.8h0.5v3.8H51.8z"/>
			<path d="M56.1,40.9c-0.1-0.3-0.3-0.5-0.5-0.6c-0.2-0.1-0.5-0.2-0.8-0.2c-0.4,0-0.7,0.1-1,0.4c-0.3,0.3-0.4,0.7-0.4,1.1
				s0.1,0.8,0.4,1.1c0.3,0.3,0.6,0.4,1,0.4c0.3,0,0.6-0.1,0.8-0.2c0.2-0.1,0.4-0.3,0.5-0.6h0.5c-0.1,0.4-0.4,0.7-0.7,1
				c-0.3,0.2-0.7,0.3-1.1,0.3c-0.5,0-1-0.2-1.4-0.6c-0.4-0.4-0.6-0.9-0.6-1.4c0-0.6,0.2-1,0.6-1.4c0.4-0.4,0.8-0.6,1.4-0.6
				c0.4,0,0.8,0.1,1.1,0.3c0.3,0.2,0.5,0.5,0.7,0.9H56.1z"/>
			<path d="M60.5,42.9c-0.2,0.2-0.4,0.4-0.6,0.5c-0.3,0.1-0.5,0.2-0.8,0.2c-0.6,0-1-0.2-1.4-0.6c-0.4-0.4-0.6-0.8-0.6-1.4
				c0-0.6,0.2-1,0.6-1.4c0.4-0.4,0.8-0.6,1.4-0.6c0.3,0,0.6,0.1,0.8,0.2c0.2,0.1,0.4,0.3,0.6,0.5v-0.6H61v3.8h-0.5V42.9z M60.5,41.6
				c0-0.4-0.1-0.8-0.4-1.1c-0.3-0.3-0.6-0.4-1-0.4c-0.4,0-0.8,0.1-1,0.4c-0.3,0.3-0.4,0.7-0.4,1.1c0,0.4,0.1,0.8,0.4,1.1
				c0.3,0.3,0.6,0.4,1,0.4c0.4,0,0.7-0.2,1-0.5C60.4,42.4,60.5,42,60.5,41.6z"/>
			<path d="M61.5,42.3H62v0c0,0.2,0.1,0.4,0.2,0.6c0.1,0.2,0.3,0.2,0.5,0.2c0.2,0,0.3-0.1,0.5-0.2c0.1-0.1,0.2-0.3,0.2-0.5
				c0-0.2,0-0.3-0.1-0.4c-0.1-0.1-0.3-0.2-0.5-0.3c-0.4-0.1-0.7-0.3-0.8-0.5c-0.1-0.2-0.2-0.4-0.2-0.6c0-0.3,0.1-0.5,0.3-0.8
				c0.2-0.2,0.5-0.3,0.8-0.3c0.3,0,0.6,0.1,0.8,0.3c0.2,0.2,0.3,0.4,0.3,0.8h-0.5c0-0.2-0.1-0.3-0.2-0.4c-0.1-0.1-0.2-0.1-0.4-0.1
				c-0.2,0-0.3,0.1-0.4,0.2s-0.2,0.2-0.2,0.4c0,0.1,0,0.2,0.1,0.3c0,0.1,0.1,0.1,0.2,0.2c0.1,0.1,0.2,0.1,0.4,0.2
				c0.2,0.1,0.3,0.1,0.4,0.1c0.2,0.1,0.4,0.2,0.5,0.4c0.1,0.2,0.2,0.4,0.2,0.6c0,0.3-0.1,0.6-0.3,0.8c-0.2,0.2-0.5,0.3-0.9,0.3
				c-0.4,0-0.6-0.1-0.9-0.3C61.6,43,61.5,42.7,61.5,42.3z"/>
		</g>
	</g>
	<g>
		<g>
			<ellipse transform="matrix(0.1305 -0.9914 0.9914 0.1305 44.1381 95.8359)" class="st0" cx="76.7" cy="22.8" rx="8.7" ry="8.7"/>
			<ellipse transform="matrix(0.1304 -0.9915 0.9915 0.1304 48.3554 99.199)" class="st1" cx="80.7" cy="22" rx="3.9" ry="3.9"/>
			<ellipse transform="matrix(0.1306 -0.9914 0.9914 0.1306 39.4104 95.0627)" class="st1" cx="73.9" cy="25.1" rx="1.5" ry="1.5"/>
		</g>
		<path class="st2" d="M96.8,16.9l4.3-5.7c-3-1.5-6.3-2.5-9.8-3c-9.1-1.2-17.7,1.7-23.5,7.1c4.8-2.9,10.6-4.3,16.7-3.5
			C89.1,12.5,93.3,14.3,96.8,16.9z"/>
		<path class="st3" d="M86.9,6.9l0.7-5.6c-0.5,0.1-1,0.2-1.6,0.3c-12,2.4-21.5,9-24.8,16.5C65.8,11.6,75.5,7.1,86.9,6.9z"/>
		<path class="st4" d="M69.8,7.5L69,4.8c-8.7,5.8-13.7,14.1-13,21.4C56.9,19.5,62,12.4,69.8,7.5z"/>
	</g>
	<g>
		<path class="st5" d="M25.5,30.3c0,2.6-0.7,4.4-2.1,5.5c-1.2,0.9-3,1.4-5.5,1.4H1.1V33h15.6c1.1,0,1.9-0.2,2.5-0.6
			c0.6-0.4,0.9-1.1,0.9-2.1c0-0.9-0.3-1.6-1-2.2c-0.6-0.4-1.3-0.6-2.1-0.6h-5.7c-2.4,0-4.2-0.6-5.4-1.8C4.6,24.5,4,22.8,4,20.8
			c0-2.2,0.8-3.9,2.4-5.1c1.4-1.1,3.2-1.7,5.4-1.7h39.4v4.1h-39c-1.8,0-2.8,0.8-2.8,2.5c0,1,0.3,1.8,1,2.2c0.5,0.3,1.2,0.5,2.1,0.5
			H18C23,23.4,25.5,25.7,25.5,30.3z"/>
		<path class="st5" d="M32,37.2h-4.8V19.6H32V37.2z M47.4,19.6l-9.6,8.6l9.1,9h-6.4l-8.3-9l8.8-8.6H47.4z"/>
		<path class="st5" d="M64.3,37.2h-7.4c-2.8,0-4.9-0.8-6.3-2.5c-1.3-1.5-2-3.6-2-6.2V14h4.8v13.5c0,1.9,0.3,3.3,0.9,4.1
			c0.6,0.9,1.8,1.4,3.3,1.4h6.7V37.2z"/>
	</g>
</g>
</svg>
